<svg width="34" height="34" viewBox="0 0 34 34" fill="none" xmlns="http://www.w3.org/2000/svg">
<path fill-rule="evenodd" clip-rule="evenodd" d="M33 30.0909C33 31.6982 31.6982 33 30.0909 33H3.90909C2.30182 33 1 31.6982 1 30.0909V3.90909C1 2.30182 2.30182 1 3.90909 1H30.0909C31.6982 1 33 2.30182 33 3.90909V30.0909V30.0909Z" stroke="#FF4E2C" stroke-width="1.5" stroke-linecap="round" stroke-linejoin="round"/>
<path d="M1 6.81812H33" stroke="#FF4E2C" stroke-width="1.5" stroke-linecap="round" stroke-linejoin="round"/>
<path fill-rule="evenodd" clip-rule="evenodd" d="M4.63683 3.90916C4.63683 4.31061 4.31102 4.63643 3.90956 4.63643C3.50811 4.63643 3.18229 4.31061 3.18229 3.90916C3.18229 3.5077 3.50811 3.18188 3.90956 3.18188C4.31102 3.18188 4.63683 3.5077 4.63683 3.90916Z" fill="#FF4E2C"/>
<path fill-rule="evenodd" clip-rule="evenodd" d="M7.54517 3.90916C7.54517 4.31061 7.21935 4.63643 6.81789 4.63643C6.41644 4.63643 6.09062 4.31061 6.09062 3.90916C6.09062 3.5077 6.41644 3.18188 6.81789 3.18188C7.21935 3.18188 7.54517 3.5077 7.54517 3.90916Z" fill="#FF4E2C"/>
<path fill-rule="evenodd" clip-rule="evenodd" d="M10.4545 3.90916C10.4545 4.31061 10.1287 4.63643 9.72727 4.63643C9.32582 4.63643 9 4.31061 9 3.90916C9 3.5077 9.32582 3.18188 9.72727 3.18188C10.1287 3.18188 10.4545 3.5077 10.4545 3.90916Z" fill="#FF4E2C"/>
<line x1="10.0975" y1="26.4382" x2="28.0758" y2="26.4382" stroke="#17233B" stroke-width="1.5" stroke-linecap="round"/>
<line x1="5.22813" y1="26.4382" x2="6.51074" y2="26.4382" stroke="#17233B" stroke-width="1.5" stroke-linecap="round"/>
<line x1="10.0975" y1="11.8293" x2="28.0758" y2="11.8293" stroke="#17233B" stroke-width="1.5" stroke-linecap="round"/>
<line x1="5.22813" y1="11.8293" x2="6.51074" y2="11.8293" stroke="#17233B" stroke-width="1.5" stroke-linecap="round"/>
<line x1="10.0975" y1="16.699" x2="28.0758" y2="16.699" stroke="#17233B" stroke-width="1.5" stroke-linecap="round"/>
<line x1="5.22813" y1="16.699" x2="6.51074" y2="16.699" stroke="#17233B" stroke-width="1.5" stroke-linecap="round"/>
<line x1="10.0975" y1="21.5686" x2="28.0758" y2="21.5686" stroke="#17233B" stroke-width="1.5" stroke-linecap="round"/>
<line x1="5.22813" y1="21.5686" x2="6.51074" y2="21.5686" stroke="#17233B" stroke-width="1.5" stroke-linecap="round"/>
</svg>
