<svg width="34" height="34" viewBox="0 0 34 34" fill="#ffffff" xmlns="http://www.w3.org/2000/svg">
<path fill-rule="evenodd" clip-rule="evenodd" d="M1 10.7391L17.6957 1L33 10.7391H1V10.7391Z" stroke="#FF4E2C" stroke-width="1.5" stroke-linecap="round" stroke-linejoin="round"/>
<path fill-rule="evenodd" clip-rule="evenodd" d="M1 33.0001H33V28.8262H1V33.0001Z" stroke="#17233B" stroke-width="1.5" stroke-linecap="round" stroke-linejoin="round"/>
<path fill-rule="evenodd" clip-rule="evenodd" d="M5.17346 26.0435H9.34738V13.5217H5.17346V26.0435Z" stroke="#FF4E2C" stroke-width="1.5" stroke-linecap="round" stroke-linejoin="round"/>
<path d="M3.78284 13.5217H5.17414" stroke="#FF4E2C" stroke-width="1.5" stroke-linecap="round" stroke-linejoin="round"/>
<path d="M3.78284 26.0435H5.17414" stroke="#FF4E2C" stroke-width="1.5" stroke-linecap="round" stroke-linejoin="round"/>
<path d="M9.34766 26.0435H10.739" stroke="#FF4E2C" stroke-width="1.5" stroke-linecap="round" stroke-linejoin="round"/>
<path d="M9.34766 13.5217H10.739" stroke="#FF4E2C" stroke-width="1.5" stroke-linecap="round" stroke-linejoin="round"/>
<path fill-rule="evenodd" clip-rule="evenodd" d="M14.9133 26.0435H19.0872V13.5217H14.9133V26.0435Z" stroke="#FF4E2C" stroke-width="1.5" stroke-linecap="round" stroke-linejoin="round"/>
<path d="M13.5219 13.5217H14.9132" stroke="#FF4E2C" stroke-width="1.5" stroke-linecap="round" stroke-linejoin="round"/>
<path d="M13.5219 26.0435H14.9132" stroke="#FF4E2C" stroke-width="1.5" stroke-linecap="round" stroke-linejoin="round"/>
<path d="M19.0867 26.0435H20.478" stroke="#FF4E2C" stroke-width="1.5" stroke-linecap="round" stroke-linejoin="round"/>
<path d="M19.0867 13.5217H20.478" stroke="#FF4E2C" stroke-width="1.5" stroke-linecap="round" stroke-linejoin="round"/>
<path fill-rule="evenodd" clip-rule="evenodd" d="M24.6523 26.0435H28.8263V13.5217H24.6523V26.0435Z" stroke="#FF4E2C" stroke-width="1.5" stroke-linecap="round" stroke-linejoin="round"/>
<path d="M23.2601 13.5217H24.6514" stroke="#FF4E2C" stroke-width="1.5" stroke-linecap="round" stroke-linejoin="round"/>
<path d="M23.2601 26.0435H24.6514" stroke="#FF4E2C" stroke-width="1.5" stroke-linecap="round" stroke-linejoin="round"/>
<path d="M28.8258 26.0435H30.2171" stroke="#FF4E2C" stroke-width="1.5" stroke-linecap="round" stroke-linejoin="round"/>
<path d="M28.8258 13.5217H30.2171" stroke="#FF4E2C" stroke-width="1.5" stroke-linecap="round" stroke-linejoin="round"/>
</svg>
