<svg width="159" height="44" viewBox="0 0 159 44" fill="none" xmlns="http://www.w3.org/2000/svg">
<g clip-path="url(#clip0)">
<path d="M61.1975 13.5422C55.631 13.5422 52.4075 17.7462 52.4075 23.2296C52.4075 27.8489 54.9996 30.4743 59.5359 30.4743C63.7398 30.4743 66.7806 28.2643 67.6114 23.9607H62.7096C62.2942 25.6888 61.3471 26.5694 59.918 26.5694C58.273 26.5694 57.3425 25.3398 57.3425 23.1631C57.3425 20.9365 58.2896 17.5135 61.048 17.5135C62.6431 17.5135 63.2579 18.4607 63.2912 19.9395H68.0434C68.06 19.7567 68.06 19.6238 68.06 19.5241C68.06 15.8851 65.3848 13.5422 61.1975 13.5422Z" fill="#17233B"/>
<path d="M78.2629 18.0453C76.4849 18.0453 75.5378 18.8429 74.5574 20.1888L74.9728 18.3776H70.6692L68.21 30.0755H72.6631L73.7764 24.8746C74.1586 23.0302 75.0061 21.8504 77.1329 21.8504C77.6979 21.8504 78.1798 21.9335 78.8112 22.1495L79.6586 18.1948C79.0272 18.0619 78.7613 18.0453 78.2629 18.0453Z" fill="#17233B"/>
<path d="M86.1225 18.0618C81.9851 18.0618 79.1437 20.8865 79.1437 25.0074C79.1437 28.9122 81.6195 30.4077 85.0757 30.4077C87.9171 30.4077 90.4428 29.4772 91.3235 26.6192H86.9534C86.6543 27.234 86.1059 27.5331 85.2917 27.5331C83.9956 27.5331 83.3144 26.8518 83.3144 25.5723C83.3144 25.4726 83.3144 25.4062 83.331 25.2566H91.8053C91.9715 24.3926 91.9881 24.1267 91.9881 23.4122C92.0213 20.0557 89.8114 18.0618 86.1225 18.0618ZM87.8174 22.9303H83.7298C84.0621 21.7007 84.9262 20.9696 86.0727 20.9696C87.1361 20.9696 87.8174 21.6509 87.8174 22.6811V22.9303Z" fill="#17233B"/>
<path d="M103.786 13.9077L102.539 19.7899C101.842 18.6101 100.728 18.0452 99.1331 18.0452C95.1286 18.0452 93.2676 21.8836 93.2676 25.4561C93.2676 28.3639 94.5803 30.3911 97.5546 30.3911C99.0168 30.3911 100.014 29.8926 100.778 28.7627C100.695 29.1449 100.662 29.2113 100.612 29.5271L100.529 30.0754H104.816L108.256 13.8911H103.786V13.9077ZM99.4489 26.9681C98.3522 26.9681 97.7872 26.3367 97.7872 25.0573C97.7872 23.5618 98.3522 21.4183 100.197 21.4183C101.31 21.4183 101.792 22.2657 101.792 23.2627C101.792 24.6917 101.243 26.9681 99.4489 26.9681Z" fill="#17233B"/>
<path d="M107.458 30.0756H111.961L114.436 18.3611H109.967L107.458 30.0756Z" fill="#17233B"/>
<path d="M110.897 13.9077L110.232 17.0316H114.735L115.4 13.9077H110.897Z" fill="#17233B"/>
<path d="M130.854 21.1526H133.263L133.894 18.3611H131.485L132.249 14.772H127.78L126.965 18.3611H124.656H124.39H122.246L123.027 14.772H118.557L117.743 18.3611H115.783L115.151 21.1526H117.112L116.231 25.2735C115.882 26.8188 115.849 27.0847 115.849 27.5499C115.849 29.8596 117.893 30.275 119.754 30.275C121.033 30.275 121.415 30.2584 122.363 30.0922L123.044 26.9185C122.628 26.9684 122.23 26.9684 121.814 26.9684C121.15 26.9684 120.568 26.9517 120.568 26.1542C120.568 25.988 120.668 25.4729 120.767 25.0242L121.631 21.1859H123.758H124.041H126.351L125.47 25.3067C125.138 26.852 125.088 27.1179 125.088 27.5832C125.088 29.8928 127.131 30.3082 128.993 30.3082C130.272 30.3082 130.654 30.2916 131.601 30.1255L132.283 26.9517C131.867 27.0016 131.468 27.0016 131.053 27.0016C130.388 27.0016 129.807 26.985 129.807 26.1874C129.807 26.0212 129.89 25.5061 130.006 25.0575L130.854 21.1526Z" fill="#17233B"/>
<path d="M140.823 18.0618C136.686 18.0618 133.844 20.8865 133.844 25.0074C133.844 28.9122 136.32 30.4077 139.776 30.4077C142.618 30.4077 145.143 29.4772 146.024 26.6192H141.654C141.355 27.234 140.807 27.5331 139.992 27.5331C138.696 27.5331 138.015 26.8518 138.015 25.5723C138.015 25.4726 138.015 25.4062 138.032 25.2566H146.506C146.672 24.3926 146.689 24.1267 146.689 23.4122C146.705 20.0557 144.495 18.0618 140.823 18.0618ZM142.501 22.9303H138.414C138.746 21.7007 139.61 20.9696 140.757 20.9696C141.82 20.9696 142.501 21.6509 142.501 22.6811V22.9303Z" fill="#17233B"/>
<path d="M153.651 20.1722L154.066 18.361H149.763L147.304 30.0755H151.757L152.87 24.8746C153.252 23.0302 154.1 21.8504 156.227 21.8504C156.792 21.8504 157.273 21.9335 157.905 22.1495L158.752 18.1948C158.121 18.0619 157.872 18.0287 157.373 18.0287C155.595 18.0453 154.631 18.8263 153.651 20.1722Z" fill="#17233B"/>
<path d="M35.5591 3.27334C35.3929 3.20687 34.9442 2.97424 33.8476 2.55884C31.7207 1.72802 28.3808 0.814124 24.8249 0.348868C13.9745 -0.781042 6.6799 4.32017 4.40346 16.6329L2.04395 29.793L6.53035 37.2038C6.91253 36.7884 12.0968 31.3881 12.3461 31.1389C13.1769 30.2748 13.7418 29.1948 13.9246 28.0981L15.9518 16.6329C15.9518 16.6329 16.5832 12.6616 19.4412 9.02258C14.3733 10.5181 11.4986 14.5392 10.0364 19.5573C10.1527 19.1419 10.1361 18.6268 10.1693 18.1948C11.3158 3.52258 23.4624 1.77787 35.5591 3.27334Z" fill="#17233B"/>
<path d="M41.9562 0L34.861 7.41088L31.3051 27.3837C31.3051 27.3837 29.2946 39.9456 16.3671 40.8761C22.5151 38.932 27.1344 34.8112 28.4471 27.3837L30.8066 14.2236C26.8021 7.61027 27.7825 9.22205 26.3202 6.81269C25.8051 7.34441 22.432 10.8671 20.5045 12.8776C19.6737 13.7417 19.1088 14.8218 18.926 15.9184L16.8988 27.3671C16.8988 27.3671 16.2674 31.3384 13.4094 34.9773C18.4773 33.4819 21.352 29.4607 22.8142 24.4426C22.6979 24.858 22.7477 25.3731 22.6813 25.8051C21.1692 37.8686 11.997 42.2054 0 40.7266C0.166163 40.8097 13.9411 48.852 32.5181 39.4305C37.5363 36.9713 41.9063 32.6012 42.8369 27.3671L46.077 9.50453C46.3263 8.15861 46.0604 6.74622 45.3459 5.58308L41.9562 0Z" fill="#FF4E2C"/>
</g>
<defs>
<clipPath id="clip0">
<rect width="158.752" height="44" fill="white"/>
</clipPath>
</defs>
</svg>
