<svg width="47" height="44" viewBox="0 0 47 44" fill="none" xmlns="http://www.w3.org/2000/svg">
<path d="M35.56 3.27295C35.3939 3.2065 34.9452 2.97389 33.8485 2.55851C31.7217 1.72777 28.3818 0.81395 24.8259 0.348732C13.9754 -0.781081 6.68087 4.31969 4.40444 16.6313L2.04492 29.7903L6.53133 37.2006C6.9135 36.7852 12.0978 31.3854 12.347 31.1361C13.1779 30.2722 13.7428 29.1922 13.9256 28.0956L15.9528 16.6313C15.9528 16.6313 16.5842 12.6604 19.4422 9.02171C14.3742 10.517 11.4996 14.5379 10.0374 19.5556C10.1537 19.1402 10.1371 18.6251 10.1703 18.1931C11.3168 3.52218 23.4634 1.77761 35.56 3.27295Z" fill="#17233B"/>
<path d="M41.9562 0L34.861 7.41024L31.3051 27.3813C31.3051 27.3813 29.2946 39.9422 16.3671 40.8726C22.5151 38.9287 27.1344 34.8082 28.4471 27.3813L30.8066 14.2224C26.8021 7.60962 27.7825 9.22127 26.3202 6.81211C25.8051 7.34378 22.432 10.8661 20.5045 12.8765C19.6737 13.7405 19.1088 14.8205 18.926 15.9171L16.8988 27.3647C16.8988 27.3647 16.2674 31.3357 13.4094 34.9744C18.4773 33.479 21.352 29.4582 22.8142 24.4405C22.6979 24.8559 22.7477 25.3709 22.6813 25.8029C21.1692 37.8653 11.997 42.2018 0 40.7231C0.166163 40.8062 13.9411 48.8478 32.5181 39.4272C37.5363 36.9681 41.9063 32.5984 42.8369 27.3647L46.077 9.50372C46.3263 8.15791 46.0604 6.74565 45.3459 5.5826L41.9562 0Z" fill="#FF4E2C"/>
</svg>
