<svg width="32" height="32" viewBox="0 0 32 32" fill="none" xmlns="http://www.w3.org/2000/svg">
<circle cx="16" cy="16" r="15.25" stroke="#FF4E2C" stroke-width="1.5"/>
<path d="M21.792 10.6768L11.1435 21.3251" stroke="#17233B" stroke-width="1.5" stroke-linecap="round" stroke-linejoin="round"/>
<path fill-rule="evenodd" clip-rule="evenodd" d="M15.1381 12.0083C14.4031 12.7433 13.2101 12.7433 12.4751 12.0083C11.7401 11.2733 11.7401 10.0803 12.4751 9.34538C13.2101 8.61041 14.4031 8.61041 15.1381 9.34538C15.873 10.0803 15.873 11.2733 15.1381 12.0083V12.0083Z" stroke="#17233B" stroke-width="1.5" stroke-linecap="round" stroke-linejoin="round"/>
<path fill-rule="evenodd" clip-rule="evenodd" d="M20.461 22.6574C19.726 23.3924 18.533 23.3924 17.798 22.6574C17.063 21.9224 17.063 20.7294 17.798 19.9944C18.533 19.2594 19.726 19.2594 20.461 19.9944C21.1959 20.7294 21.1959 21.9224 20.461 22.6574V22.6574Z" stroke="#17233B" stroke-width="1.5" stroke-linecap="round" stroke-linejoin="round"/>
</svg>
