<svg width="34" height="34" viewBox="0 0 34 34" fill="none" xmlns="http://www.w3.org/2000/svg">
<path d="M1 17C1 8.16243 8.16249 1 17.0001 1C24.1195 1 29.0587 5.69565 32.2281 12.0776" stroke="#FF4E2C" stroke-width="1.5" stroke-linecap="round" stroke-linejoin="round"/>
<path d="M27.4344 12.1303H32.9996V6.62354" stroke="#FF4E2C" stroke-width="1.5" stroke-linecap="round" stroke-linejoin="round"/>
<path d="M32.9999 17C32.9999 25.8376 25.8375 33.0001 16.9998 33.0001C9.88046 33.0001 4.94129 28.3044 1.77187 21.9225" stroke="#FF4E2C" stroke-width="1.5" stroke-linecap="round" stroke-linejoin="round"/>
<path d="M6.56526 21.8694H1V27.3762" stroke="#FF4E2C" stroke-width="1.5" stroke-linecap="round" stroke-linejoin="round"/>
<path fill-rule="evenodd" clip-rule="evenodd" d="M23.2604 17.0001C23.2604 20.4575 20.4569 23.261 16.9995 23.261C13.542 23.261 10.7385 20.4575 10.7385 17.0001C10.7385 13.5427 13.542 10.7393 16.9995 10.7393C20.4569 10.7393 23.2604 13.5427 23.2604 17.0001Z" stroke="#17233B" stroke-width="1.5" stroke-linecap="round" stroke-linejoin="round"/>
</svg>
