<svg width="34" height="33" viewBox="0 0 34 33" fill="none" xmlns="http://www.w3.org/2000/svg">
<path fill-rule="evenodd" clip-rule="evenodd" d="M28.8264 20.3293C28.8264 21.0973 28.2031 21.7206 27.4351 21.7206C26.6671 21.7206 26.0438 21.0973 26.0438 20.3293C26.0438 19.5613 26.6671 18.938 27.4351 18.938C28.2031 18.938 28.8264 19.5613 28.8264 20.3293V20.3293Z" stroke="#FF4E2C" stroke-width="1.2" stroke-linecap="round" stroke-linejoin="round"/>
<path fill-rule="evenodd" clip-rule="evenodd" d="M27.4341 24.503H32.9993V16.1553H27.4341C25.1288 16.1553 23.2603 18.0238 23.2603 20.3292C23.2603 22.6345 25.1288 24.503 27.4341 24.503V24.503Z" stroke="#FF4E2C" stroke-width="1.2" stroke-linecap="round" stroke-linejoin="round"/>
<path d="M1 13.3727V11.9814C1 8.14001 4.11511 5.0249 7.95648 5.0249H12.826" stroke="#FF4E2C" stroke-width="1.2" stroke-linecap="round" stroke-linejoin="round"/>
<path d="M33.0003 13.3727V11.9814C33.0003 8.14001 29.8852 5.0249 26.0438 5.0249" stroke="#FF4E2C" stroke-width="1.2" stroke-linecap="round" stroke-linejoin="round"/>
<path d="M5.17346 9.19902L19.4718 1.49959C21.5448 0.383775 24.1313 1.20186 25.1845 3.30828L28.1298 9.19902" stroke="#17233B" stroke-width="1.2" stroke-linecap="round" stroke-linejoin="round"/>
<path d="M15.0126 9.19897L25.3485 3.63379" stroke="#17233B" stroke-width="1.2" stroke-linecap="round" stroke-linejoin="round"/>
<path fill-rule="evenodd" clip-rule="evenodd" d="M28.8259 9.19922H5.17389C2.86851 9.19922 1 11.0677 1 13.3731V27.2861C1 29.5914 2.86851 31.4599 5.17389 31.4599H28.8259C31.1313 31.4599 32.9998 29.5914 32.9998 27.2861V13.3731C32.9998 11.0677 31.1313 9.19922 28.8259 9.19922V9.19922Z" stroke="#FF4E2C" stroke-width="1.2" stroke-linecap="round" stroke-linejoin="round"/>
</svg>
