<svg xmlns="http://www.w3.org/2000/svg" xmlns:xlink="http://www.w3.org/1999/xlink"><defs><clipPath id="clip0"><path fill="#fff" d="M0 0h158.752v44H0z"/></clipPath></defs><symbol id="arrow-long" viewBox="0 0 8 83"><path opacity=".4" d="M3.646 82.354a.5.5 0 00.708 0l3.182-3.182a.5.5 0 10-.708-.707L4 81.293l-2.828-2.829a.5.5 0 10-.708.708l3.182 3.182zM3.5 0v82h1V0h-1z" fill="#FF4E2C"/></symbol><symbol id="arrow" viewBox="0 0 8 35"><path opacity=".4" d="M3.646 34.354a.5.5 0 00.708 0l3.182-3.182a.5.5 0 10-.708-.707L4 33.293l-2.828-2.828a.5.5 0 10-.708.707l3.182 3.182zM3.5 0v34h1V0h-1z" fill="#FF4E2C"/></symbol><symbol id="calendar" viewBox="0 0 34 34"><path clip-rule="evenodd" d="M33 30.09A2.908 2.908 0 0130.09 33H3.91A2.908 2.908 0 011 30.09V3.91A2.908 2.908 0 013.91 1h26.18A2.908 2.908 0 0133 3.91v26.18z" stroke="#FF4E2C" stroke-width="1.5" stroke-linecap="round" stroke-linejoin="round"/><path d="M1 6.818h32" stroke="#FF4E2C" stroke-width="1.5" stroke-linecap="round" stroke-linejoin="round"/><path fill-rule="evenodd" clip-rule="evenodd" d="M4.637 3.91a.728.728 0 11-1.455-.001.728.728 0 011.455 0zm2.908 0a.728.728 0 11-1.455-.001.728.728 0 011.455 0zm2.909 0A.728.728 0 119 3.908a.728.728 0 011.455 0z" fill="#FF4E2C"/><path stroke="#17233B" stroke-width="1.5" stroke-linecap="round" d="M10.098 26.438h17.978m-22.848 0h1.283m3.587-14.609h17.978m-22.848 0h1.283m3.587 4.87h17.978m-22.848 0h1.283m3.587 4.87h17.978m-22.848 0h1.283"/></symbol><symbol id="house" viewBox="0 0 34 34"><path fill-rule="evenodd" clip-rule="evenodd" d="M1 10.74L17.696 1 33 10.74H1v0z" stroke="#FF4E2C" stroke-width="1.5" stroke-linecap="round" stroke-linejoin="round"/><path fill-rule="evenodd" clip-rule="evenodd" d="M1 33h32v-4.174H1V33z" stroke="#17233B" stroke-width="1.5" stroke-linecap="round" stroke-linejoin="round"/><path fill-rule="evenodd" clip-rule="evenodd" d="M5.173 26.044h4.174V13.522H5.173v12.522z" stroke="#FF4E2C" stroke-width="1.5" stroke-linecap="round" stroke-linejoin="round"/><path d="M3.783 13.522h1.391M3.783 26.044h1.391m4.174 0h1.391M9.348 13.522h1.391" stroke="#FF4E2C" stroke-width="1.5" stroke-linecap="round" stroke-linejoin="round"/><path fill-rule="evenodd" clip-rule="evenodd" d="M14.913 26.044h4.174V13.522h-4.174v12.522z" stroke="#FF4E2C" stroke-width="1.5" stroke-linecap="round" stroke-linejoin="round"/><path d="M13.522 13.522h1.391m-1.391 12.522h1.391m4.174 0h1.391m-1.391-12.522h1.391" stroke="#FF4E2C" stroke-width="1.5" stroke-linecap="round" stroke-linejoin="round"/><path fill-rule="evenodd" clip-rule="evenodd" d="M24.652 26.044h4.174V13.522h-4.174v12.522z" stroke="#FF4E2C" stroke-width="1.5" stroke-linecap="round" stroke-linejoin="round"/><path d="M23.26 13.522h1.391M23.26 26.044h1.391m4.175 0h1.391m-1.391-12.522h1.391" stroke="#FF4E2C" stroke-width="1.5" stroke-linecap="round" stroke-linejoin="round"/></symbol><symbol id="logo-mobile" viewBox="0 0 47 44"><path d="M35.56 3.273c-.166-.067-.615-.3-1.712-.714-2.126-.831-5.466-1.745-9.022-2.21C13.976-.781 6.68 4.319 4.404 16.63l-2.36 13.16 4.487 7.41c.383-.416 5.567-5.816 5.816-6.065.83-.864 1.396-1.944 1.579-3.04l2.027-11.465s.631-3.97 3.49-7.61c-5.069 1.496-7.943 5.517-9.406 10.535.117-.416.1-.93.133-1.363 1.147-14.67 13.293-16.415 25.39-14.92z" fill="#17233B"/><path d="M41.956 0l-7.095 7.41-3.556 19.971s-2.01 12.561-14.938 13.492c6.148-1.944 10.767-6.065 12.08-13.492l2.36-13.159c-4.005-6.612-3.024-5-4.487-7.41-.515.532-3.888 4.054-5.816 6.064-.83.865-1.395 1.944-1.578 3.041l-2.027 11.448s-.632 3.97-3.49 7.61c5.068-1.496 7.943-5.517 9.405-10.535-.116.416-.066.93-.133 1.363C21.17 37.865 11.997 42.202 0 40.723c.166.083 13.941 8.125 32.518-1.296 5.018-2.459 9.388-6.829 10.319-12.062l3.24-17.861a5.59 5.59 0 00-.731-3.921L41.956 0z" fill="#FF4E2C"/></symbol><symbol id="logo" viewBox="0 0 159 44"><g clip-path="url(#clip0)"><path d="M61.197 13.542c-5.566 0-8.79 4.204-8.79 9.688 0 4.619 2.593 7.244 7.129 7.244 4.204 0 7.245-2.21 8.075-6.513H62.71c-.416 1.728-1.363 2.608-2.792 2.608-1.645 0-2.575-1.23-2.575-3.406 0-2.227.947-5.65 3.705-5.65 1.595 0 2.21.948 2.243 2.426h4.752c.017-.182.017-.315.017-.415 0-3.639-2.675-5.982-6.863-5.982zm17.066 4.503c-1.778 0-2.725.798-3.706 2.144l.416-1.811h-4.304L68.21 30.076h4.453l1.113-5.201c.383-1.845 1.23-3.025 3.357-3.025.565 0 1.047.083 1.678.3l.848-3.955c-.632-.133-.898-.15-1.396-.15zm7.86.017c-4.138 0-6.98 2.825-6.98 6.945 0 3.905 2.477 5.4 5.933 5.4 2.841 0 5.367-.93 6.248-3.788h-4.37c-.3.615-.848.914-1.662.914-1.296 0-1.978-.681-1.978-1.96 0-.1 0-.167.017-.316h8.474c.166-.864.183-1.13.183-1.845.033-3.356-2.177-5.35-5.865-5.35zm1.694 4.868H83.73c.332-1.23 1.196-1.96 2.343-1.96 1.063 0 1.744.68 1.744 1.711v.25zm15.969-9.022l-1.247 5.882c-.697-1.18-1.811-1.745-3.406-1.745-4.004 0-5.865 3.839-5.865 7.411 0 2.908 1.312 4.935 4.287 4.935 1.462 0 2.459-.498 3.223-1.628-.083.382-.116.448-.166.764l-.083.548h4.287l3.44-16.184h-4.47v.017zm-4.337 13.06c-1.097 0-1.662-.631-1.662-1.91 0-1.496.565-3.64 2.41-3.64 1.113 0 1.595.848 1.595 1.845 0 1.429-.549 3.705-2.343 3.705zm8.009 3.108h4.503l2.475-11.715h-4.469l-2.509 11.715zm3.439-16.168l-.665 3.124h4.503l.665-3.124h-4.503zm19.957 7.245h2.409l.631-2.792h-2.409l.764-3.589h-4.469l-.815 3.59h-4.719l.781-3.59h-4.47l-.814 3.59h-1.96l-.632 2.79h1.961l-.881 4.121c-.349 1.546-.382 1.812-.382 2.277 0 2.31 2.044 2.725 3.905 2.725 1.279 0 1.661-.017 2.609-.183l.681-3.173c-.416.05-.814.05-1.23.05-.664 0-1.246-.017-1.246-.815 0-.166.1-.681.199-1.13l.864-3.838h4.72l-.881 4.12c-.332 1.546-.382 1.812-.382 2.277 0 2.31 2.043 2.725 3.905 2.725 1.279 0 1.661-.016 2.608-.183l.682-3.173c-.416.05-.815.05-1.23.05-.665 0-1.246-.017-1.246-.815 0-.166.083-.68.199-1.13l.848-3.904zm9.969-3.091c-4.137 0-6.979 2.825-6.979 6.945 0 3.905 2.476 5.4 5.932 5.4 2.842 0 5.367-.93 6.248-3.788h-4.37c-.299.615-.847.914-1.662.914-1.296 0-1.977-.681-1.977-1.96 0-.1 0-.167.017-.316h8.474c.166-.864.183-1.13.183-1.845.016-3.356-2.194-5.35-5.866-5.35zm1.678 4.868h-4.087c.332-1.23 1.196-1.96 2.343-1.96 1.063 0 1.744.68 1.744 1.711v.25zm11.15-2.758l.415-1.811h-4.303l-2.459 11.715h4.453l1.113-5.201c.382-1.845 1.23-3.025 3.357-3.025.565 0 1.046.083 1.678.3l.847-3.955c-.631-.133-.88-.166-1.379-.166-1.778.016-2.742.797-3.722 2.143zM35.56 3.273c-.167-.066-.616-.299-1.712-.714C31.72 1.728 28.38.814 24.825.349 13.975-.781 6.68 4.32 4.403 16.633l-2.359 13.16 4.486 7.41c.383-.415 5.567-5.815 5.816-6.064.83-.864 1.396-1.944 1.579-3.04l2.027-11.466s.631-3.971 3.49-7.61c-5.069 1.495-7.943 5.516-9.406 10.534.117-.415.1-.93.133-1.362C11.316 3.523 23.462 1.778 35.56 3.273z" fill="#17233B"/><path d="M41.956 0l-7.095 7.41-3.556 19.974s-2.01 12.562-14.938 13.492c6.148-1.944 10.767-6.065 12.08-13.492l2.36-13.16c-4.005-6.614-3.024-5.002-4.487-7.411-.515.531-3.888 4.054-5.816 6.065-.83.864-1.395 1.944-1.578 3.04l-2.027 11.45s-.632 3.97-3.49 7.61c5.068-1.496 7.943-5.517 9.405-10.535-.116.415-.066.93-.133 1.362C21.17 37.87 11.997 42.205 0 40.727c.166.083 13.941 8.125 32.518-1.296 5.018-2.46 9.388-6.83 10.319-12.064l3.24-17.862a5.59 5.59 0 00-.731-3.922L41.956 0z" fill="#FF4E2C"/></g></symbol><symbol id="percent" viewBox="0 0 32 32"><circle cx="16" cy="16" r="15.25" stroke="#FF4E2C" stroke-width="1.5"/><path d="M21.792 10.677L11.143 21.325" stroke="#17233B" stroke-width="1.5" stroke-linecap="round" stroke-linejoin="round"/><path clip-rule="evenodd" d="M15.138 12.008a1.884 1.884 0 11-2.663-2.665 1.884 1.884 0 012.663 2.665v0zm5.323 10.649a1.884 1.884 0 11-2.663-2.664 1.884 1.884 0 012.663 2.664v0z" stroke="#17233B" stroke-width="1.5" stroke-linecap="round" stroke-linejoin="round"/></symbol><symbol id="round" viewBox="0 0 34 34"><path d="M1 17C1 8.162 8.162 1 17 1c7.12 0 12.059 4.696 15.228 11.078" stroke="#FF4E2C" stroke-width="1.5" stroke-linecap="round" stroke-linejoin="round"/><path d="M27.434 12.13H33V6.624M33 17c0 8.838-7.163 16-16 16-7.12 0-12.06-4.696-15.228-11.078" stroke="#FF4E2C" stroke-width="1.5" stroke-linecap="round" stroke-linejoin="round"/><path d="M6.565 21.87H1v5.506" stroke="#FF4E2C" stroke-width="1.5" stroke-linecap="round" stroke-linejoin="round"/><path clip-rule="evenodd" d="M23.26 17a6.261 6.261 0 11-12.522 0 6.261 6.261 0 0112.522 0z" stroke="#17233B" stroke-width="1.5" stroke-linecap="round" stroke-linejoin="round"/></symbol><symbol id="rub" viewBox="0 0 34 34"><path clip-rule="evenodd" d="M33 30.09A2.908 2.908 0 0130.09 33H3.91A2.908 2.908 0 011 30.09V3.91A2.908 2.908 0 013.91 1h26.18A2.908 2.908 0 0133 3.91v26.18z" stroke="#FF4E2C" stroke-width="1.5" stroke-linecap="round" stroke-linejoin="round"/><path d="M1 6.818h32" stroke="#FF4E2C" stroke-width="1.5" stroke-linecap="round" stroke-linejoin="round"/><path fill-rule="evenodd" clip-rule="evenodd" d="M4.637 3.91a.728.728 0 11-1.456-.001.728.728 0 011.456 0zm2.908 0a.728.728 0 11-1.455-.001.728.728 0 011.455 0zm2.909 0A.728.728 0 119 3.908a.728.728 0 011.455 0z" fill="#FF4E2C"/></symbol><symbol id="wallet" viewBox="0 0 34 33"><path clip-rule="evenodd" d="M28.826 20.33a1.392 1.392 0 11-2.783-.002 1.392 1.392 0 012.783.001v0z" stroke="#FF4E2C" stroke-width="1.2" stroke-linecap="round" stroke-linejoin="round"/><path clip-rule="evenodd" d="M27.434 24.503H33v-8.348h-5.565a4.174 4.174 0 100 8.348v0z" stroke="#FF4E2C" stroke-width="1.2" stroke-linecap="round" stroke-linejoin="round"/><path d="M1 13.373V11.98a6.957 6.957 0 016.956-6.956h4.87M33 13.373V11.98a6.957 6.957 0 00-6.956-6.956" stroke="#FF4E2C" stroke-width="1.2" stroke-linecap="round" stroke-linejoin="round"/><path d="M5.173 9.199l14.299-7.7a4.175 4.175 0 015.712 1.81l2.946 5.89m-13.117 0l10.336-5.565" stroke="#17233B" stroke-width="1.2" stroke-linecap="round" stroke-linejoin="round"/><path clip-rule="evenodd" d="M28.826 9.2H5.174A4.174 4.174 0 001 13.372v13.913a4.174 4.174 0 004.174 4.174h23.652A4.174 4.174 0 0033 27.286V13.373A4.174 4.174 0 0028.826 9.2v0z" stroke="#FF4E2C" stroke-width="1.2" stroke-linecap="round" stroke-linejoin="round"/></symbol></svg>